<svg xmlns="http://www.w3.org/2000/svg" width="31" height="20" viewBox="0 0 31 20"><g><g opacity=".75"><path fill="#fff" d="M31 8.171v1.972h-3.802v3.942h-1.901v-3.942h-3.802V8.17h3.802V4.228h1.9v3.943zm-11.406 0v1.972c0 5.435-4.265 9.857-9.506 9.857-5.241 0-9.505-4.422-9.505-9.857S4.847.286 10.088.286c2.283 0 4.48.851 6.192 2.397l-2.498 2.973a5.503 5.503 0 0 0-3.694-1.428c-3.144 0-5.703 2.654-5.703 5.915 0 3.26 2.559 5.914 5.703 5.914 2.48 0 4.593-1.648 5.378-3.943h-5.378V8.171z"/></g></g></svg>