<svg xmlns="http://www.w3.org/2000/svg" width="206" height="206" viewBox="0 0 206 206"><defs><linearGradient id="j518a" x1="0" x2="206" y1="48" y2="158" gradientUnits="userSpaceOnUse"><stop offset="0" stop-color="#2f3dfc" stop-opacity=".6"/><stop offset=".73" stop-color="#641187" stop-opacity=".6"/><stop offset="1" stop-color="#641187" stop-opacity=".6"/></linearGradient></defs><g><g><path d="M206 103c0 56.794-46.205 103-103 103C46.269 206 .063 159.796 0 103.005c-.013-12.006 2.018-23.767 6.038-34.958a4.193 4.193 0 0 1 7.89 2.833c-3.69 10.277-5.556 21.082-5.544 32.115.058 52.174 42.503 94.62 94.617 94.62 52.17 0 94.615-42.445 94.615-94.616 0-52.086-42.447-94.531-94.622-94.615h-.152c-21.893 0-43.214 7.642-60.056 21.529a4.192 4.192 0 1 1-5.333-6.47C55.792 8.324 79.009 0 102.842 0h.165c27.519.045 53.382 10.77 72.824 30.2C195.286 49.642 206.001 75.497 206 103zm-70.505-64.652a4.191 4.191 0 0 1-5.512 2.183 67.39 67.39 0 0 0-22.79-5.43V46.11a4.193 4.193 0 0 1-8.384 0V35.103c-34.18 2.089-61.616 29.526-63.704 63.705H46.11a4.192 4.192 0 0 1 0 8.384H35.105c2.088 34.179 29.525 61.615 63.704 63.704v-11.007a4.193 4.193 0 0 1 8.384 0v11.007c34.179-2.089 61.616-29.526 63.704-63.704H159.89a4.193 4.193 0 0 1 0-8.384h15.33a4.192 4.192 0 0 1 4.192 4.191c0 42.135-34.28 76.414-76.413 76.414-42.134 0-76.413-34.28-76.413-76.414 0-42.133 34.279-76.413 76.413-76.413 10.527 0 20.725 2.103 30.31 6.25a4.192 4.192 0 0 1 2.185 5.512zm1.793 30.414a4.192 4.192 0 0 1 .921 4.538l-15.359 37.934c-.012.03-.03.055-.042.084a21.33 21.33 0 0 1-4.606 6.865 21.428 21.428 0 0 1-6.498 4.459 4.186 4.186 0 0 1-.521.26L73.249 138.26a4.189 4.189 0 0 1-4.537-.922 4.191 4.191 0 0 1-.921-4.538l15.363-37.93c.08-.197.177-.382.282-.56a21.325 21.325 0 0 1 4.432-6.463 21.38 21.38 0 0 1 7.783-4.98l37.1-15.027a4.187 4.187 0 0 1 4.537.922zm-39.019 22.09l-.302.122-.054.018a13.057 13.057 0 0 0-4.117 2.784c-5.095 5.094-5.095 13.383 0 18.478a12.98 12.98 0 0 0 9.239 3.828c3.49 0 6.772-1.36 9.24-3.828 5.094-5.095 5.094-13.384 0-18.478a12.978 12.978 0 0 0-9.24-3.828c-1.658 0-3.266.316-4.766.904zm-18.991 35.92l12.93-5.235a21.571 21.571 0 0 1-4.34-3.355 21.408 21.408 0 0 1-3.352-4.343zm47.446-47.446l-12.816 5.191a21.589 21.589 0 0 1 7.624 7.633z"/><path fill="url(#j518a)" d="M206 103c0 56.794-46.205 103-103 103C46.269 206 .063 159.796 0 103.005c-.013-12.006 2.018-23.767 6.038-34.958a4.193 4.193 0 0 1 7.89 2.833c-3.69 10.277-5.556 21.082-5.544 32.115.058 52.174 42.503 94.62 94.617 94.62 52.17 0 94.615-42.445 94.615-94.616 0-52.086-42.447-94.531-94.622-94.615h-.152c-21.893 0-43.214 7.642-60.056 21.529a4.192 4.192 0 1 1-5.333-6.47C55.792 8.324 79.009 0 102.842 0h.165c27.519.045 53.382 10.77 72.824 30.2C195.286 49.642 206.001 75.497 206 103zm-70.505-64.652a4.191 4.191 0 0 1-5.512 2.183 67.39 67.39 0 0 0-22.79-5.43V46.11a4.193 4.193 0 0 1-8.384 0V35.103c-34.18 2.089-61.616 29.526-63.704 63.705H46.11a4.192 4.192 0 0 1 0 8.384H35.105c2.088 34.179 29.525 61.615 63.704 63.704v-11.007a4.193 4.193 0 0 1 8.384 0v11.007c34.179-2.089 61.616-29.526 63.704-63.704H159.89a4.193 4.193 0 0 1 0-8.384h15.33a4.192 4.192 0 0 1 4.192 4.191c0 42.135-34.28 76.414-76.413 76.414-42.134 0-76.413-34.28-76.413-76.414 0-42.133 34.279-76.413 76.413-76.413 10.527 0 20.725 2.103 30.31 6.25a4.192 4.192 0 0 1 2.185 5.512zm1.793 30.414a4.192 4.192 0 0 1 .921 4.538l-15.359 37.934c-.012.03-.03.055-.042.084a21.33 21.33 0 0 1-4.606 6.865 21.428 21.428 0 0 1-6.498 4.459 4.186 4.186 0 0 1-.521.26L73.249 138.26a4.189 4.189 0 0 1-4.537-.922 4.191 4.191 0 0 1-.921-4.538l15.363-37.93c.08-.197.177-.382.282-.56a21.325 21.325 0 0 1 4.432-6.463 21.38 21.38 0 0 1 7.783-4.98l37.1-15.027a4.187 4.187 0 0 1 4.537.922zm-39.019 22.09l-.302.122-.054.018a13.057 13.057 0 0 0-4.117 2.784c-5.095 5.094-5.095 13.383 0 18.478a12.98 12.98 0 0 0 9.239 3.828c3.49 0 6.772-1.36 9.24-3.828 5.094-5.095 5.094-13.384 0-18.478a12.978 12.978 0 0 0-9.24-3.828c-1.658 0-3.266.316-4.766.904zm-18.991 35.92l12.93-5.235a21.571 21.571 0 0 1-4.34-3.355 21.408 21.408 0 0 1-3.352-4.343zm47.446-47.446l-12.816 5.191a21.589 21.589 0 0 1 7.624 7.633z"/></g></g></svg>