<svg xmlns="http://www.w3.org/2000/svg" width="23" height="23" viewBox="0 0 23 23"><g><g opacity=".75"><path fill="#fff" d="M5.894 7.762v14.866a.37.37 0 0 1-.368.372H.946a.37.37 0 0 1-.368-.372V7.762a.37.37 0 0 1 .368-.372h4.58a.37.37 0 0 1 .368.372zm.363-4.712c0 1.682-1.354 3.051-3.02 3.051S.217 4.732.217 3.05C.216 1.368 1.57 0 3.238 0c1.665 0 3.02 1.368 3.02 3.05zM23.03 14.474v8.154a.37.37 0 0 1-.368.372h-4.572a.37.37 0 0 1-.368-.372V15.4c0-2.023-.148-3.571-2.01-3.571-1.71 0-2.376.965-2.376 3.444v7.355a.37.37 0 0 1-.368.372h-4.57a.37.37 0 0 1-.368-.372V7.762a.37.37 0 0 1 .368-.372h4.386a.37.37 0 0 1 .368.372v.966c.825-.908 2.185-1.707 4.024-1.707 5.158 0 5.854 3.767 5.854 7.453z"/></g></g></svg>