<svg xmlns="http://www.w3.org/2000/svg" width="28" height="20" viewBox="0 0 28 20"><g><g><path fill="#fff" d="M22.05 15.027a.434.434 0 0 1-.3-.12l-5.055-4.744a.44.44 0 0 1-.035-.038l-1.433 1.25a2.453 2.453 0 0 1-1.612.583 2.456 2.456 0 0 1-1.613-.582l-1.432-1.25a.439.439 0 0 1-.035.037L5.48 14.907a.434.434 0 0 1-.62-.02.44.44 0 0 1 .019-.62l5.03-4.72L.974 1.752a1.312 1.312 0 0 0-.102.507V17.24a1.32 1.32 0 0 0 1.318 1.319h22.848a1.32 1.32 0 0 0 1.317-1.319V2.258c0-.179-.035-.35-.1-.505l-8.934 7.794 5.03 4.72a.44.44 0 0 1-.302.76zm2.989 4.41H2.19A2.2 2.2 0 0 1-.005 17.24V2.258A2.2 2.2 0 0 1 2.19.061h22.848a2.2 2.2 0 0 1 2.196 2.197V17.24a2.2 2.2 0 0 1-2.196 2.198zM2.19.94c-.227 0-.44.058-.627.159l11.015 9.613c.561.49 1.51.49 2.07 0L25.668 1.1c-.187-.102-.4-.16-.628-.16z"/></g></g></svg>