<svg xmlns="http://www.w3.org/2000/svg" width="22" height="22" viewBox="0 0 22 22"><g><g><path fill="#fff" d="M17.458 21.894c-.878 0-1.938-.22-3.104-.661-2.555-.965-5.336-2.872-7.829-5.37-2.494-2.498-4.398-5.283-5.362-7.843-.876-2.328-.878-4.237-.005-5.112.125-.126.253-.26.385-.4C2.34 1.67 3.24.724 4.433.768c.823.033 1.62.545 2.436 1.562 2.41 3.003 1.323 4.073.065 5.314l-.222.22c-.205.206-.594 1.16 3.023 4.784 1.18 1.182 2.187 2.048 2.992 2.571.506.33 1.412.829 1.784.457l.224-.226c1.237-1.257 2.305-2.342 5.302.07 1.015.817 1.525 1.615 1.559 2.44.049 1.194-.901 2.098-1.74 2.895-.138.133-.273.26-.398.386-.434.434-1.127.653-2 .653zM4.348 1.476c-.847 0-1.613.808-2.29 1.522-.137.143-.269.283-.398.413-.651.65-.585 2.361.167 4.359.93 2.467 2.776 5.163 5.2 7.592 2.424 2.426 5.114 4.276 7.578 5.206 1.995.755 3.702.82 4.352.169.13-.13.269-.263.412-.398.729-.694 1.555-1.48 1.519-2.352-.025-.599-.46-1.243-1.295-1.915-2.497-2.011-3.195-1.301-4.353-.125l-.227.23c-.553.555-1.452.432-2.672-.363-.847-.551-1.892-1.448-3.107-2.665-3.002-3.006-3.962-4.846-3.022-5.79l.226-.223c1.177-1.16 1.887-1.86-.121-4.362-.672-.835-1.315-1.271-1.913-1.297h-.056z"/></g></g></svg>