<svg xmlns="http://www.w3.org/2000/svg" width="26" height="21" viewBox="0 0 26 21"><g><g opacity=".75"><path fill="#fff" d="M25.463 2.654c-.93.418-1.92.695-2.951.829A5.2 5.2 0 0 0 24.765.581a10.093 10.093 0 0 1-3.248 1.27 5.076 5.076 0 0 0-3.742-1.66c-2.836 0-5.119 2.359-5.119 5.251 0 .417.035.817.119 1.198-4.258-.213-8.027-2.305-10.558-5.493a5.389 5.389 0 0 0-.701 2.654c0 1.819.913 3.431 2.275 4.364a4.967 4.967 0 0 1-2.314-.647v.058c0 2.552 1.775 4.671 4.104 5.16a5.006 5.006 0 0 1-1.343.172 4.41 4.41 0 0 1-.97-.09c.664 2.08 2.547 3.609 4.786 3.658a10.132 10.132 0 0 1-6.35 2.24c-.42 0-.824-.02-1.227-.072A14.166 14.166 0 0 0 8.335 21c9.426 0 14.58-8.004 14.58-14.941a13.8 13.8 0 0 0-.02-.68 10.361 10.361 0 0 0 2.568-2.725z"/></g></g></svg>